<?xml version="1.0" encoding="UTF-8"?>
<svg width="100px" height="100px" viewBox="0 0 100 100" version="1.1" xmlns="http://www.w3.org/2000/svg" xmlns:xlink="http://www.w3.org/1999/xlink">
    <title>lang-switcher</title>
    <g id="lang-switcher" stroke="none" stroke-width="1" fill="none" fill-rule="evenodd">
        <path d="M50.5,3 C76.7335256,3 98,24.2664744 98,50.5 C98,76.7335256 76.7335256,98 50.5,98 C24.2664744,98 3,76.7335256 3,50.5 C3,24.2664744 24.2664744,3 50.5,3 Z" id="bg" fill="#71B959"></path>
        <path d="M51,7.55 C74.9967724,7.55 94.45,27.0032276 94.45,51 C94.45,74.9967724 74.9967724,94.45 51,94.45 C27.0032276,94.45 7.55,74.9967724 7.55,51 C7.55,27.0032276 27.0032276,7.55 51,7.55 Z M51,8.45 C27.5002839,8.45 8.45,27.5002839 8.45,51 C8.45,74.4997161 27.5002839,93.55 51,93.55 C74.4997161,93.55 93.55,74.4997161 93.55,51 C93.55,27.5002839 74.4997161,8.45 51,8.45 Z M41.0170662,26 C42.5882059,26 43.8618662,27.2656269 43.8618662,28.8268568 L43.8618662,31.6537135 L56.1893325,31.6537135 C57.7604721,31.6537135 59.0341324,32.9193404 59.0341324,34.4805703 C59.0341324,36.0418001 57.7604721,37.307427 56.1893325,37.307427 L51.2891267,37.307427 C50.7210975,42.3735084 48.6286788,47.1515893 45.2851954,51.0175268 C48.0381714,52.8103703 51.1949585,53.8981541 54.4738992,54.1838231 L59.3345173,44.5238717 C59.8163444,43.5661367 60.8013911,42.9611393 61.8789324,42.9611393 C62.9564737,42.9611393 63.9415204,43.5661367 64.4233475,44.5238717 L77.6990806,70.9078681 C78.1541587,71.8112389 78.0894907,72.8872679 77.5294499,73.7303984 C76.9694092,74.5735289 75.9991361,75.0555835 74.9843282,74.9948751 C73.9695202,74.9341666 73.064454,74.3399245 72.6102503,73.4361193 L69.6034793,67.4605658 L54.1543855,67.4605658 L51.1476122,73.4361193 C50.6934085,74.3399245 49.7883422,74.9341666 48.7735343,74.9948751 C47.7587263,75.0555835 46.7884533,74.5735289 46.2284125,73.7303984 C45.6683718,72.8872679 45.6037037,71.8112389 46.0587819,70.9078681 L51.7838042,59.5299888 C47.8910586,58.8474278 44.209178,57.2819306 41.0244153,54.9552087 C36.6319793,58.1865287 31.3099497,59.9280027 25.8447999,59.9222811 C24.2736603,59.9222811 23,58.6566542 23,57.0954243 C23,55.5341945 24.2736603,54.2685676 25.8447999,54.2685676 C29.7218891,54.2719582 33.5146035,53.1437574 36.7520948,51.0240262 C35.1990333,49.2319325 33.9063563,47.2324194 32.9117713,45.0838132 C32.2569107,43.6653342 32.8827176,41.9878794 34.3098331,41.3363546 C35.7369486,40.6848298 37.4254012,41.3057496 38.0818609,42.7234985 C38.8437343,44.3690088 39.8304364,45.9021988 41.0140579,47.2797013 C43.4437703,44.4479682 45.0170664,40.9905611 45.55195,37.307427 L25.8447999,37.307427 C24.2736603,37.307427 23,36.0418001 23,34.4805703 C23,32.9193404 24.2736603,31.6537135 25.8447999,31.6537135 L38.1722663,31.6537135 L38.1722663,28.8268568 C38.1722663,27.2656269 39.4459266,26 41.0170662,26 Z M61.8789324,52.1090846 L56.9992139,61.8068523 L66.7586509,61.8068523 L61.8789324,52.1090846 Z" id="white" fill="#FFFFFF"></path>
    </g>
</svg>