<?xml version="1.0" encoding="UTF-8"?>
<svg width="100px" height="100px" viewBox="0 0 100 100" version="1.1" xmlns="http://www.w3.org/2000/svg" xmlns:xlink="http://www.w3.org/1999/xlink">
    <title>lang-switcher</title>
    <g id="lang-switcher" stroke="none" stroke-width="1" fill="none" fill-rule="evenodd">
        <path d="M50.5,3 C76.7335256,3 98,24.2664744 98,50.5 C98,76.7335256 76.7335256,98 50.5,98 C24.2664744,98 3,76.7335256 3,50.5 C3,24.2664744 24.2664744,3 50.5,3 Z M51,7.55 C27.0032276,7.55 7.55,27.0032276 7.55,51 C7.55,74.9967724 27.0032276,94.45 51,94.45 C74.9967724,94.45 94.45,74.9967724 94.45,51 C94.45,27.0032276 74.9967724,7.55 51,7.55 Z M51,8.45 C74.4997161,8.45 93.55,27.5002839 93.55,51 C93.55,74.4997161 74.4997161,93.55 51,93.55 C27.5002839,93.55 8.45,74.4997161 8.45,51 C8.45,27.5002839 27.5002839,8.45 51,8.45 Z M41.0170662,26 C39.4459266,26 38.1722663,27.2656269 38.1722663,28.8268568 L38.1722663,31.6537135 L25.8447999,31.6537135 C24.2736603,31.6537135 23,32.9193404 23,34.4805703 C23,36.0418001 24.2736603,37.307427 25.8447999,37.307427 L45.55195,37.307427 C45.0170664,40.9905611 43.4437703,44.4479682 41.0140579,47.2797013 C39.8304364,45.9021988 38.8437343,44.3690088 38.0818609,42.7234985 C37.4254012,41.3057496 35.7369486,40.6848298 34.3098331,41.3363546 C32.8827176,41.9878794 32.2569107,43.6653342 32.9117713,45.0838132 C33.9063563,47.2324194 35.1990333,49.2319325 36.7520948,51.0240262 C33.5146035,53.1437574 29.7218891,54.2719582 25.8447999,54.2685676 C24.2736603,54.2685676 23,55.5341945 23,57.0954243 C23,58.6566542 24.2736603,59.9222811 25.8447999,59.9222811 C31.3099497,59.9280027 36.6319793,58.1865287 41.0244153,54.9552087 C44.209178,57.2819306 47.8910586,58.8474278 51.7838042,59.5299888 L46.0587819,70.9078681 C45.6037037,71.8112389 45.6683718,72.8872679 46.2284125,73.7303984 C46.7884533,74.5735289 47.7587263,75.0555835 48.7735343,74.9948751 C49.7883422,74.9341666 50.6934085,74.3399245 51.1476122,73.4361193 L54.1543855,67.4605658 L69.6034793,67.4605658 L72.6102503,73.4361193 C73.064454,74.3399245 73.9695202,74.9341666 74.9843282,74.9948751 C75.9991361,75.0555835 76.9694092,74.5735289 77.5294499,73.7303984 C78.0894907,72.8872679 78.1541587,71.8112389 77.6990806,70.9078681 L64.4233475,44.5238717 C63.9415204,43.5661367 62.9564737,42.9611393 61.8789324,42.9611393 C60.8013911,42.9611393 59.8163444,43.5661367 59.3345173,44.5238717 L54.4738992,54.1838231 C51.1949585,53.8981541 48.0381714,52.8103703 45.2851954,51.0175268 C48.6286788,47.1515893 50.7210975,42.3735084 51.2891267,37.307427 L56.1893325,37.307427 C57.7604721,37.307427 59.0341324,36.0418001 59.0341324,34.4805703 C59.0341324,32.9193404 57.7604721,31.6537135 56.1893325,31.6537135 L43.8618662,31.6537135 L43.8618662,28.8268568 C43.8618662,27.2656269 42.5882059,26 41.0170662,26 Z M61.8789324,52.1090846 L66.7586509,61.8068523 L56.9992139,61.8068523 L61.8789324,52.1090846 Z" id="Shape" fill="#71B959"></path>
    </g>
</svg>